<svg height="20" viewBox="0 0 20 20" width="20" xmlns="http://www.w3.org/2000/svg"><path d="m10.682648 20h-9.57880153c-.6098162 0-1.10384647-.4943369-1.10384647-1.1039155v-17.7922466c0-.60973386.49410788-1.1038379 1.10384647-1.1038379h17.79238463c.6095834 0 1.1037689.49410404 1.1037689 1.1038379v17.7922466c0 .6096562-.4942631 1.1039155-1.1037689 1.1039155h-5.0965206v-7.7451022h2.5996733l.3892642-3.01840379h-2.9889375v-1.92706009c0-.87389754.2426693-1.46942988 1.4958269-1.46942988l1.5983423-.00069844v-2.69968454c-.2764272-.03678425-1.2252199-.11896678-2.3290664-.11896678-2.3044657 0-3.8821653 1.40664832-3.8821653 3.98984941v2.22599032h-2.60634725v3.01840379h2.60634725z" fill="#4460a0" fill-rule="evenodd"/></svg>