<svg height="21" viewBox="0 0 20 21" width="20" xmlns="http://www.w3.org/2000/svg"><g fill="none" fill-rule="evenodd"><path d="m4.18181818 10.212766c0-.64862416.10772727-1.27046813.3-1.85373054l-3.36545454-2.56998581c-.65590909 1.33174468-1.02545455 2.83234042-1.02545455 4.42371635 0 1.5900141.36909091 3.0897021 1.02409091 4.420539l3.36363636-2.5749788c-.19045454-.580539-.29681818-1.2001134-.29681818-1.8455602" fill="#fbbc05"/><path d="m10.0909091 4.31205674c1.4090909 0 2.6818182.49929078 3.6818182 1.31631205l2.9090909-2.90496453c-1.7727273-1.54326242-4.0454546-2.4964539-6.5909091-2.4964539-3.95181819 0-7.34818183 2.25997163-8.97454546 5.56209929l3.36545454 2.56998581c.77545455-2.35392908 2.98590909-4.04697872 5.60909092-4.04697872" fill="#ea4335"/><path d="m10.0909091 16.1134752c-2.62318183 0-4.83363637-1.6930497-5.60909092-4.0469787l-3.36545454 2.5695319c1.62636363 3.3025815 5.02272727 5.5625532 8.97454546 5.5625532 2.4390909 0 4.7677273-.8660426 6.5154545-2.4887376l-3.1945454-2.4696738c-.9013637.5678298-2.0363637.873305-3.3209091.873305" fill="#34a853"/><path d="m19.6363636 10.212766c0-.59007096-.0909091-1.22553196-.2272727-1.81560288h-9.3181818v3.85815598h5.3636364c-.2681819 1.3154043-.9981819 2.3266951-2.0427273 2.9848511l3.1945454 2.4696738c1.8359091-1.7039433 3.03-4.2421561 3.03-7.497078" fill="#4285f4"/></g></svg>